<?xml version="1.0" encoding="UTF-8"?>
<svg width="700pt" height="700pt" version="1.1" viewBox="0 0 700 700" xmlns="http://www.w3.org/2000/svg">
 <g>
  <path d="m581.36 391.74c-8.8203-6.2969-16.156-11.402-17.973-9.4453-1.7812 1.8711 2.793 10.805 11.762 18.336 8.9258 7.6016 18.738 9.6953 20.363 6.5117 1.668-3.2148-5.3672-9.0977-14.152-15.402z"/>
  <path d="m554.24 395.61c-8.0039-8.4258-14.574-13.516-15.961-10.152-1.3438 3.3125 3.5 14.074 12.059 22.973 8.5352 8.9609 17.117 12.062 17.91 8.2227 0.82422-3.8516-6.0234-12.602-14.008-21.043z"/>
  <path d="m527.3 396.03c-7.5781-8.9492-13.848-12.562-14.91-7.3555h-0.003906c0.89844 10.031 5.4062 19.398 12.688 26.359 8.4219 9.1367 16.129 11.492 16.312 6.1484-2.3477-9.4961-7.2148-18.184-14.086-25.152z"/>
  <path d="m499.8 396.24c-7.5039-8.5117-13.824-9.9375-14.613-2.8086h0.003906c0.83203 10.941 5.6992 21.18 13.652 28.734 8.5312 8.625 15.68 9.2852 15.422 2.0703-2.1055-10.5-7.1172-20.199-14.465-27.996z"/>
  <path d="m471.18 397.28c-7.7148-7.5312-14.305-6.5469-14.871 2.4297 0.71094 11.695 6.0586 22.625 14.855 30.367 8.8398 7.7266 15.711 6.2109 15.141-2.9102h-0.003906c-1.7539-11.312-7.0469-21.773-15.121-29.887z"/>
  <path d="m441.09 399.11c-8.1406-6.332-15.191-2.9961-15.598 7.6172h0.003907c0.49219 12.367 6.4062 23.887 16.164 31.5 9.3164 6.707 16.191 2.8945 15.43-8.0625v-0.003906c-1.3008-11.973-7-23.039-16-31.051z"/>
  <path d="m410.14 403.83c-8.3711-6.3828-15.91-3.1367-16.789 7.3281v-0.003906c0.0625 12.379 5.7891 24.043 15.547 31.656 9.4805 7.0078 16.992 3.4727 16.75-7.5781h0.003906c-0.77344-12.117-6.3594-23.426-15.512-31.402z"/>
  <path d="m377.41 409.52c-8.457-7.1172-16.379-5.375-17.863 3.7695-0.27344 11.859 4.9609 23.18 14.176 30.656 9.4023 7.8789 17.641 6.2188 18.145-3.6797h-0.003906c-0.41016-11.793-5.6328-22.906-14.453-30.746z"/>
  <path d="m342.55 413.52c-8.4062-7.8398-16.602-7.7188-18.637 0.011719-0.64453 11.195 4.0273 22.043 12.609 29.262 9.1562 8.6172 17.945 8.9102 19.191 0.42188-0.019532-11.309-4.7969-22.09-13.164-29.695z"/>
  <path d="m306.05 415.41c-8.0273-8.8086-16.332-10.633-19.02-4.5273-1.3203 10.348 2.4922 20.684 10.211 27.695 8.5352 9.457 17.688 12.066 19.824 5.3203 0.65234-10.645-3.3711-21.047-11.016-28.488z"/>
  <path d="m267.52 414.16c-7.543-9.2266-15.656-12.414-18.637-7.6719-2.9453 4.7539 0.55859 15.949 8.3984 25.625s16.828 13.809 19.488 8.5898c2.6719-5.1914-1.7188-17.352-9.25-26.543z"/>
  <path d="m228 410.19c-6.8594-9.418-14.559-13.746-17.652-10.191-3.0664 3.5664-0.31641 13.82 6.6367 23.488 6.9375 9.6445 15.457 14.922 18.43 11.105 2.9766-3.8125-0.57031-14.996-7.4141-24.402z"/>
  <path d="m188.35 404.05c-6.0469-9.4609-13.113-14.695-16.16-12.145-3.0234 2.5742-0.89453 12.051 5.1016 21.566 5.9961 9.5156 13.695 15.5 16.758 12.859 3.0586-2.6445 0.32812-12.863-5.6992-22.281z"/>
  <path d="m149.44 396.42c-5.2031-9.4453-11.543-15.516-14.398-13.77s-1.1719 10.676 3.9336 20.117c5.0859 9.4453 11.809 15.895 14.754 14.152 2.9414-1.7422 0.90625-11.062-4.2891-20.5z"/>
  <path d="m112.02 387.76c3.957 9.8711 5.043 18.723 2.4258 19.773-2.6172 1.0469-7.9492-6.1016-11.906-15.973-3.9531-9.8672-5.0391-18.719-2.4219-19.77 2.6172-1.0508 7.9492 6.1016 11.902 15.969"/>
  <path d="m552.34 343.56c-4.6875-8.7734-8.8164-15.52-10.715-14.02-1.8477 1.457-0.42578 11.008 4.6445 20.41 5.0391 9.4453 11.48 14.496 12.957 12.383 1.5078-2.1406-2.2305-9.9609-6.8867-18.773z"/>
  <path d="m531.35 340.59c-4.5469-9.5039-8.9414-15.262-10.953-12.145l0.003907-0.003907c-1.3398 8.2734 0.46875 16.75 5.0742 23.758 5.2578 9.7734 11.441 14.344 12.691 10.984h-0.003906c-0.31641-7.9883-2.6602-15.762-6.8125-22.594z"/>
  <path d="m508.42 337.43c-4.7344-9.3672-9.6914-13.355-11.809-8.4414h0.003906c-1.3984 9.1875 0.73047 18.559 5.957 26.242 5.6914 9.4375 11.836 12.633 12.961 7.6914h-0.003906c-0.12109-8.9688-2.5742-17.754-7.1094-25.492z"/>
  <path d="m483.44 335.19c-5.2031-8.668-10.91-10.453-13.074-3.7461-1.4414 9.9062 1.1602 19.973 7.2227 27.938 6.2891 8.6758 12.562 10.008 13.625 3.3242v-0.003906c0.12109-9.7266-2.5781-19.285-7.7734-27.512z"/>
  <path d="m456.4 334.12c-5.8672-7.6094-12.414-7.0352-14.574 1.3438h0.003906c-1.5156 10.488 1.6875 21.105 8.7461 29.008 6.9922 7.6602 13.539 6.8672 14.574-1.5156 0.44141-10.324-2.6445-20.496-8.75-28.836z"/>
  <path d="m427.39 334.04c-6.6914-6.3594-14.09-3.5117-16.207 6.3242h0.003906c-1.6484 10.98 2.2461 22.066 10.402 29.602 7.7773 6.5547 14.727 3.625 15.77-6.375 0.83203-10.797-2.7695-21.465-9.9688-29.551z"/>
  <path d="m396.95 337.05c-7.0156-6.25-14.836-3.3711-17.191 6.2891-1.8711 10.895 2.0352 21.977 10.32 29.293 8 6.5938 15.48 3.8086 16.863-6.1719 1.1719-10.797-2.4844-21.559-9.9922-29.41z"/>
  <path d="m364.74 341.54c-7.0938-6.7031-14.977-5.0859-17.551 3.3984-1.9102 10.387 1.7383 21.023 9.6328 28.047 7.9102 7.1406 15.785 5.8086 17.535-3.0859 1.2578-10.422-2.2812-20.852-9.6172-28.359z"/>
  <path d="m330.97 345.29c-7.0547-7.168-14.934-6.8477-17.695 0.42578-1.957 9.7969 1.3906 19.902 8.8125 26.594 7.6953 7.5938 15.82 7.7227 17.922 0.042968h-0.003907c1.3672-9.9375-1.9727-19.941-9.0352-27.062z"/>
  <path d="m296.17 348.12c-6.7305-7.8945-14.488-9.207-17.551-3.2969-2.2695 9.0977 0.48437 18.719 7.2227 25.238 7.1797 8.2227 15.395 10.156 18 3.9102v-0.003906c1.7031-9.3438-1.1445-18.941-7.6719-25.848z"/>
  <path d="m259.94 349.17c-6.4102-8.1914-13.918-10.652-17.043-5.8672-3.1016 4.7734-0.44922 15.141 6.2344 23.562 6.6836 8.4219 14.695 11.523 17.527 6.4961l0.003906-0.003906c1.875-8.6797-0.63672-17.723-6.7227-24.188z"/>
  <path d="m222.98 348.67c-5.9727-8.4062-13.125-11.891-16.223-8.125-3.0703 3.7422-0.83984 13.426 5.2656 21.961 6.1016 8.5312 13.723 12.605 16.672 8.7109 2.9453-3.8945 0.25391-14.168-5.7148-22.547z"/>
  <path d="m185.7 346.75c-5.4648-8.5703-12.152-13.004-15.141-10.156-2.9883 2.8477-1.0938 11.977 4.3945 20.594 5.4688 8.625 12.523 13.488 15.473 10.57 2.9453-2.9219 0.73047-12.457-4.7266-21.008z"/>
  <path d="m148.55 343.58c-4.9219-8.7656-11.094-14.113-13.906-12.07-2.8125 2.0391-1.1875 10.793 3.7031 19.582 4.8906 8.7891 11.25 14.336 14.09 12.258s1.0312-10.996-3.8867-19.77z"/>
  <path d="m111.94 339.22c4.6758 9.0117 6.3594 17.41 3.7539 18.762-2.6016 1.3516-8.5039-4.8555-13.184-13.867-4.6758-9.0078-6.3594-17.41-3.7539-18.762 2.6016-1.3516 8.5039 4.8594 13.184 13.867"/>
  <path d="m544.57 288.99c-0.875-9.6953-2.3203-17.168-4.6523-16.18-2.293 0.97656-4.168 10.484-2.7852 20.68 1.3438 10.23 5.0117 16.816 6.7969 15.32v0.003906c1.8281-6.457 2.0469-13.262 0.64062-19.824z"/>
  <path d="m526.59 281.47c-1.2656-9.9922-3.8164-16.277-6.7344-13.492-3.6758 7.4102-4.4727 15.918-2.2422 23.883 2.0781 10.223 6.2617 15.664 8.3125 12.691 2.0703-7.5273 2.2969-15.445 0.66406-23.082z"/>
  <path d="m505.6 275.39c-1.9727-9.6875-5.8633-14.09-9.2617-9.3945h-0.003906c-3.7148 8.293-4.1172 17.691-1.1172 26.273 3.0117 9.6836 7.8672 13.418 10.207 8.7695v-0.003906c2.2852-8.3867 2.3438-17.227 0.17578-25.645z"/>
  <path d="m481.74 271.17c-2.9531-8.9023-8.2617-10.996-12.012-4.4219l0.003906 0.003906c-3.7383 8.9336-3.5586 19.027 0.49609 27.824 4.0742 8.7656 9.6797 10.465 12.297 4.0586 2.5078-9.0234 2.2344-18.598-0.78516-27.465z"/>
  <path d="m455.26 268.83c-4.1055-7.7734-10.824-7.3672-14.754 0.91797-3.7812 9.4102-2.8711 20.055 2.4531 28.684 5.1992 7.6055 11.609 7.1211 14.449-0.97266h-0.003906c2.7734-9.4883 2.0078-19.66-2.1445-28.629z"/>
  <path d="m426.45 268.11c-5.3594-6.4258-13.387-3.5664-17.359 6.1992h-0.003906c-1.9023 4.7969-2.4766 10.02-1.668 15.117 0.8125 5.0977 2.9805 9.8867 6.2773 13.855 6.3438 6.3594 13.57 3.6836 16.59-5.9883h-0.003906c3.1211-9.8164 1.7148-20.508-3.832-29.184z"/>
  <path d="m395.55 271.1c-5.8438-6.1602-14.234-3.1172-18.211 6.5117-1.8945 4.7461-2.4141 9.9297-1.4922 14.957 0.92188 5.0273 3.2422 9.6914 6.6953 13.457 6.6914 6.2188 14.363 3.5234 17.512-6.1406h0.003907c3.25-9.7578 1.5703-20.488-4.5078-28.785z"/>
  <path d="m362.71 276.22c-2.4648-3.0078-6.4102-4.3711-10.207-3.5273-3.793 0.83984-6.793 3.75-7.75 7.5156-1.7617 4.5469-2.1914 9.5-1.25 14.285 0.94531 4.7812 3.2305 9.1992 6.5859 12.734 2.2227 3.1836 6.1211 4.7461 9.9297 3.9805 3.8047-0.76172 6.8008-3.7031 7.6289-7.4961 3.043-9.4141 1.1914-19.727-4.9375-27.492z"/>
  <path d="m328.62 281.27c-1.957-3.1523-5.5078-4.9531-9.207-4.668-3.6992 0.28125-6.9336 2.6055-8.3867 6.0195-1.6133 4.3203-1.9648 9.0117-1.0195 13.527 0.94531 4.5156 3.1523 8.668 6.3672 11.977 6.5586 6.9102 14.348 6.668 17.434-0.83594l-0.003906 0.003907c2.8398-8.9922 0.88281-18.809-5.1836-26.023z"/>
  <path d="m293.82 286.04c-5.7617-7.3672-13.387-8.1602-17.012-2.0859-1.582 4.0625-1.9883 8.4883-1.1797 12.773 0.8125 4.2852 2.8125 8.2539 5.7695 11.457 6.1758 7.4766 13.859 8.7969 17.07 2.6211 2.8008-8.5078 1.0469-17.855-4.6484-24.766z"/>
  <path d="m257.95 289.6c-5.6211-7.6172-12.93-9.4883-16.359-4.5v0.003906c-1.4531 3.8164-1.8125 7.9648-1.0391 11.973 0.77734 4.0117 2.6602 7.7227 5.4375 10.723 5.8828 7.6836 13.34 10.059 16.496 4.9766 2.6523-7.9844 0.93359-16.777-4.5352-23.176z"/>
  <path d="m221.59 292.02c-5.4062-7.8281-12.363-10.734-15.602-6.7344s-1.4062 13.418 4.1367 21.293 12.656 11.195 15.738 7.1445c3.0781-4.0547 1.1172-13.883-4.2734-21.703z"/>
  <path d="m184.94 293.19c-5.1094-8.0625-11.672-11.961-14.699-8.8789-3.0234 3.082-1.3281 12.035 3.8438 20.129s11.848 12.27 14.812 9.1523c2.9609-3.1172 1.1523-12.344-3.957-20.402z"/>
  <path d="m148.29 293.03c-4.7734-8.3633-10.898-13.258-13.719-11-2.8008 2.2539-1.2305 10.871 3.5469 19.273 4.7773 8.4023 10.953 13.406 13.766 11.105 2.8125-2.3047 1.1797-11.016-3.5938-19.379z"/>
  <path d="m111.91 291.36c5.0117 8.5156 6.9648 16.656 4.3672 18.184-2.5938 1.5312-8.7617-4.1328-13.773-12.648-5.0078-8.5156-6.9648-16.656-4.3672-18.184 2.5977-1.5273 8.7656 4.1367 13.773 12.648"/>
  <path d="m558.21 235.18c2.9258-9.7266 4.2734-18.164 1.5039-18.52-2.7305-0.35547-8.0781 8.1484-10.488 18.582-2.4531 10.438-1.4688 18.328 0.75 17.996 2.2539-0.35156 5.2734-8.293 8.2344-18.059z"/>
  <path d="m543 218.75c2.2031-10.41 1.5898-17.902-2.3906-16.066l-0.003906-0.003906c-6.1875 6.1719-9.8516 14.43-10.273 23.156-1.3164 10.703 0.89453 17.23 3.9453 15.152 4.7344-6.5586 7.7344-14.211 8.7227-22.238z"/>
  <path d="m523.29 206.12c0.95703-10.328-1.9297-15.785-6.9453-11.516h0.003906c-6.1641 7.457-9.3828 16.91-9.0508 26.582 0.16797 10.207 3.8516 14.707 7.6953 10.613 4.9766-7.6797 7.8398-16.539 8.2969-25.68z"/>
  <path d="m499.34 197.93c-0.65625-9.5352-5.8906-12.199-11.617-5.5195-6.0703 8.2578-8.582 18.602-6.9727 28.723 1.8359 9.1016 7.0352 11.152 11.578 4.9453h0.003906c5.125-8.4609 7.5703-18.273 7.0078-28.148z"/>
  <path d="m471.68 194.16c-2.4805-8.1758-9.8984-7.6836-16.027 1.1602-6.0078 8.668-7.5938 19.656-4.2852 29.672 3.5469 7.6172 10.199 7.0352 15.273-1.2109 5.2852-8.9102 7.082-19.465 5.0391-29.621z"/>
  <path d="m440.96 194.24c-4.3594-6.4688-13.664-2.8203-19.867 7.7852-2.9648 4.3359-4.6562 9.418-4.8789 14.672-0.21875 5.25 1.0352 10.457 3.6289 15.027 5.2031 5.9805 13.188 2.7812 18.594-7.332h-0.003906c5.543-9.0938 6.4805-20.266 2.5273-30.152z"/>
  <path d="m407.29 199.93c-5.082-5.9141-14.664-1.7461-20.543 8.8125-2.8477 4.2852-4.3438 9.332-4.293 14.48 0.054688 5.1484 1.6523 10.164 4.5859 14.391 5.7539 5.6133 14.098 2.0938 19.34-8.1562 5.4375-9.0078 5.7812-20.199 0.91016-29.527z"/>
  <path d="m371.51 209.03c-5.2812-6.0469-14.316-2.9609-19.562 6.4141h0.003906c-2.543 4.1602-3.7656 8.9922-3.5078 13.859 0.25781 4.8672 1.9844 9.543 4.9492 13.41 5.8203 5.8906 13.965 3.4727 18.672-5.7578h0.003906c2.3984-4.2852 3.6094-9.1289 3.5117-14.039-0.097656-4.9102-1.5039-9.7031-4.0703-13.887z"/>
  <path d="m334.87 218.62c-5.3984-6.2734-13.91-4.4492-18.57 3.6562-2.2305 4.0078-3.1953 8.5938-2.7656 13.16 0.42578 4.5625 2.2227 8.8945 5.1523 12.418 2.3633 2.9648 6.1484 4.4102 9.8828 3.7773 3.7344-0.63281 6.832-3.2461 8.0898-6.8203 2.1133-4.1133 3.0664-8.7305 2.75-13.344-0.31641-4.6172-1.8828-9.0586-4.5391-12.848z"/>
  <path d="m297.99 227.96c-1.75-3.1641-5.0742-5.1328-8.6914-5.1562-3.6172-0.023438-6.9648 1.9062-8.7578 5.0469-2.0234 3.8359-2.8711 8.1836-2.4414 12.5 0.42969 4.3164 2.1211 8.4102 4.8633 11.77 5.5625 6.8828 13.156 7.3047 17.121 0.64453h-0.003906c1.9141-3.9414 2.7266-8.3242 2.3594-12.688-0.36719-4.3672-1.9023-8.5508-4.4492-12.117z"/>
  <path d="m260.59 235.79c-5.2031-7.2031-12.68-8.3633-16.535-2.9102v-0.003906c-1.7578 3.6562-2.4141 7.7461-1.8867 11.77 0.52344 4.0234 2.207 7.8086 4.8438 10.895 5.4375 7.1953 12.723 8.8008 16.34 3.3398 1.6797-3.7344 2.3125-7.8594 1.8242-11.93-0.48438-4.0664-2.0703-7.9258-4.5859-11.16z"/>
  <path d="m223.12 241.77c-5.1211-7.5039-12.176-9.9023-15.652-5.5898-1.5195 3.4883-2.0156 7.3359-1.4336 11.098 0.58594 3.7578 2.2266 7.2773 4.7305 10.141 5.2578 7.5195 12.207 10.262 15.535 5.9375 1.4727-3.5508 1.957-7.4336 1.3984-11.234-0.5625-3.8008-2.1445-7.3789-4.5781-10.352z"/>
  <path d="m185.72 245.57c-4.9648-7.8555-11.598-11.469-14.746-8.2266-3.1445 3.2422-1.5664 12.188 3.457 20.094 5.0273 7.9062 11.594 11.73 14.664 8.4297 3.0742-3.3008 1.5859-12.453-3.375-20.297z"/>
  <path d="m148.57 246.79c-4.7344-8.3008-10.914-13.141-13.777-10.875-2.8594 2.2656-1.3008 10.914 3.4492 19.301 4.7461 8.3867 10.879 13.297 13.723 10.934 2.8438-2.3594 1.3398-11.055-3.3945-19.359z"/>
  <path d="m111.93 244.97c4.832 8.7812 6.6328 17.059 4.0273 18.492-2.6055 1.4336-8.6289-4.5234-13.461-13.301-4.8281-8.7812-6.6328-17.059-4.0273-18.492 2.6055-1.4336 8.6328 4.5234 13.461 13.301"/>
  <path d="m593.3 189.83c6.7383-8.6992 10.824-17.988 7.5781-20.301-3.207-2.3047-11.984 4.3477-18.117 14.246-6.1797 9.9102-7.8789 18.52-5.2734 19.648 2.6484 1.1094 9.0391-4.8555 15.812-13.594z"/>
  <path d="m580.52 162.05c5.5273-10.574 6.6523-19.758 1.5312-19.395-5.0938 0.35547-13.605 10.508-18.09 21.598-4.5078 11.121-4.0898 18.723-0.03125 17.871 4.0703-0.89062 11.039-9.4727 16.59-20.074z"/>
  <path d="m561.13 140.01c3.6445-11.27 1.4453-18.504-5.2539-14.957-8.6289 6.7852-14.535 16.441-16.637 27.215-2.3789 11.09 0.40625 16.641 5.8203 13.355 7.7188-6.8047 13.301-15.703 16.07-25.613z"/>
  <path d="m535.7 125.07c1.3047-10.785-4.2227-14.695-12.051-7.9258h0.003906c-8.3359 8.1641-13.324 19.141-14 30.785-0.042969 10.031 5.1211 12.793 11.688 6.832 7.7539-8.1641 12.773-18.543 14.359-29.691z"/>
  <path d="m505.16 117.47c-1.2461-9.3242-9.7969-9.2031-18.266 0.44922-8.0586 8.7539-11.906 20.582-10.539 32.402 2.3242 8.2969 9.6875 7.8867 17.098-0.69531 7.7188-8.918 11.887-20.363 11.707-32.156z"/>
  <path d="m470.59 116.49c-3.8164-7.2109-14.883-2.9805-23.512 8.9609h0.003907c-3.918 4.3164-6.5977 9.6094-7.7539 15.324-1.1602 5.7109-0.75781 11.629 1.1641 17.133 4.5312 6.2461 13.812 2.6211 21.75-8.3477 7.8008-9.1094 10.891-21.348 8.3477-33.07z"/>
  <path d="m432.06 123.75c-4.7656-6.2773-16.074-1.0195-24.086 11.027-8.0156 12.02-9.4336 25.762-4.1719 31.359 5.2891 5.6016 14.883 1.2969 22.418-10.07 7.5039-11.336 10.633-26.043 5.8398-32.316z"/>
  <path d="m391.12 136.35c-5.0195-6.1758-15.426-1.8828-22.34 8.8672-3.2773 4.1016-5.2305 9.0977-5.6094 14.336-0.375 5.2344 0.84375 10.461 3.5039 14.992 5.418 5.7383 14.484 2.4297 21.02-7.9062l-0.003907-0.003906c3.2461-4.2695 5.2812-9.3398 5.8828-14.672 0.60547-5.332-0.24609-10.727-2.4531-15.613z"/>
  <path d="m349.71 150.46c-5.1797-6.2305-14.738-3.2656-20.652 6.0273h0.003906c-2.8359 3.9492-4.3828 8.6758-4.4375 13.535-0.054687 4.8594 1.3906 9.6172 4.1328 13.629 5.4883 5.9766 14.031 3.8633 19.637-5.1602h0.003906c2.8203-4.082 4.4414-8.8711 4.6719-13.828 0.23438-4.9531-0.92969-9.875-3.3594-14.203z"/>
  <path d="m308.64 164.7c-2.3008-3.1367-6.0898-4.8203-9.9609-4.4297-3.8672 0.39062-7.2422 2.8008-8.8711 6.332-2.4922 3.8008-3.7852 8.2656-3.707 12.809 0.074219 4.5469 1.5117 8.9648 4.1289 12.68 2.0664 3.1406 5.6641 4.9297 9.4141 4.6797 3.7539-0.25 7.082-2.5 8.7148-5.8867 2.4648-3.9102 3.8008-8.4297 3.8516-13.051 0.046875-4.625-1.1875-9.1719-3.5703-13.133z"/>
  <path d="m267.75 177.32c-1.6367-3.1875-4.8242-5.2891-8.3984-5.5391-3.5742-0.25-7.0234 1.3867-9.0898 4.3164-2.0977 3.625-3.0625 7.7969-2.7656 11.977 0.29687 4.1758 1.8359 8.1719 4.4258 11.465 5.2344 6.9336 12.715 7.8672 16.98 1.7734 2.0977-3.6992 3.1016-7.918 2.8984-12.164-0.20312-4.2461-1.6094-8.3477-4.0508-11.828z"/>
  <path d="m227.48 187.64c-5.0391-7.2891-12.469-9.0625-16.312-4.2578v0.003906c-1.7461 3.4609-2.4297 7.3594-1.9727 11.211s2.0391 7.4805 4.5469 10.438c5.1602 7.2695 12.227 9.4766 15.941 4.6836h0.003906c1.7578-3.5117 2.4844-7.4492 2.0938-11.359-0.39062-3.9062-1.8828-7.625-4.3008-10.719z"/>
  <path d="m187.98 194.99c-4.9688-7.6562-11.859-10.812-15.211-7.2695-3.3477 3.5469-1.8555 12.535 3.168 20.23 5.0195 7.6953 11.676 11.129 14.957 7.5312 3.2852-3.5977 2.0586-12.859-2.9141-20.492z"/>
  <path d="m149.39 198.73c-4.7891-8.1406-11.137-12.734-14.078-10.332-2.9414 2.3984-1.3867 11.023 3.4062 19.285 4.793 8.2656 10.996 12.941 13.93 10.414 2.9375-2.5234 1.5273-11.23-3.2578-19.367z"/>
  <path d="m112.01 198.05c4.8281 8.7852 6.6172 17.074 3.9961 18.516-2.6211 1.4453-8.6641-4.5078-13.492-13.297-4.832-8.7852-6.6211-17.074-4-18.516 2.625-1.4414 8.6641 4.5117 13.496 13.297"/>
 </g>
</svg>
